<?xml version="1.0" encoding="utf-8"?>
<!-- Generator: Adobe Illustrator 22.1.0, SVG Export Plug-In . SVG Version: 6.00 Build 0)  -->
<svg version="1.1" id="Calque_1" xmlns="http://www.w3.org/2000/svg" xmlns:xlink="http://www.w3.org/1999/xlink" x="0px" y="0px"
	 viewBox="0 0 165 104" style="enable-background:new 0 0 165 104;" xml:space="preserve">
<style type="text/css">
	.st0{fill:#FFFFFF;}
</style>
<g>
	<g>
		<path class="st0" d="M16.7,35.5c0-2.9,0.7-5.3,2-7s3.1-2.6,5.4-2.6c1.8,0,3.4,0.7,4.6,2.1v-9.6h5.1v26.8h-4.6l-0.2-2
			c-1.3,1.6-2.9,2.4-4.9,2.4c-2.2,0-4-0.9-5.4-2.6C17.4,41,16.7,38.6,16.7,35.5z M21.8,35.8c0,1.8,0.3,3.1,0.9,4.1
			c0.6,0.9,1.5,1.4,2.7,1.4c1.6,0,2.7-0.7,3.3-2v-7.5c-0.6-1.3-1.7-2-3.3-2C23,29.9,21.8,31.9,21.8,35.8z"/>
		<path class="st0" d="M46.4,45.4c-2.8,0-5-0.9-6.8-2.6c-1.7-1.7-2.6-4-2.6-6.8v-0.5c0-1.9,0.4-3.6,1.1-5.1c0.7-1.5,1.8-2.6,3.1-3.5
			c1.3-0.8,2.9-1.2,4.6-1.2c2.6,0,4.6,0.8,6.1,2.4s2.2,3.9,2.2,6.9v2.1h-12c0.2,1.2,0.7,2.2,1.5,3c0.8,0.7,1.9,1.1,3.1,1.1
			c1.9,0,3.5-0.7,4.6-2.1l2.5,2.8C53,43,52,43.8,50.7,44.4C49.4,45.1,48,45.4,46.4,45.4z M45.8,29.9c-1,0-1.8,0.3-2.4,1
			c-0.6,0.7-1,1.6-1.2,2.9h7v-0.4c0-1.1-0.3-2-0.9-2.6C47.7,30.2,46.9,29.9,45.8,29.9z"/>
		<path class="st0" d="M63.9,38.9l3.5-12.7h5.3l-6.4,18.9h-4.8l-6.4-18.9h5.3L63.9,38.9z"/>
	</g>
	<path class="st0" d="M42.3,51.3v-3.6h2.4v3.6H42.3z M42.3,73.9V55.2h2.4v18.6L42.3,73.9L42.3,73.9z"/>
	<path class="st0" d="M65.7,73.9h-2.4V63.5c0-2.2-0.3-3.8-1-4.8s-1.7-1.5-3-1.5c-0.7,0-1.4,0.1-2.1,0.4c-0.7,0.3-1.4,0.6-2,1.1
		s-1.2,1-1.6,1.7c-0.5,0.7-0.8,1.4-1,2.1v11.4h-2.4V55.2h2.2v4.2c0.8-1.4,1.9-2.5,3.3-3.3c1.4-0.8,3-1.3,4.6-1.3
		c1,0,1.9,0.2,2.6,0.6c0.7,0.4,1.3,0.9,1.7,1.6c0.4,0.7,0.7,1.5,0.9,2.5c0.2,1,0.3,2.1,0.3,3.3L65.7,73.9L65.7,73.9z"/>
	<path class="st0" d="M77.1,74.2c-1.5,0-2.9-0.2-4.3-0.7s-2.6-1.2-3.6-2.1l1.1-1.6c1,0.9,2.1,1.5,3.2,1.9s2.2,0.6,3.5,0.6
		c1.5,0,2.7-0.3,3.6-0.9s1.3-1.5,1.3-2.6c0-0.5-0.1-1-0.4-1.3c-0.2-0.3-0.6-0.6-1.1-0.9s-1-0.5-1.8-0.7c-0.7-0.2-1.5-0.4-2.5-0.6
		c-1.1-0.3-2-0.5-2.8-0.8s-1.4-0.6-2-0.9c-0.5-0.3-0.9-0.7-1.1-1.2c-0.3-0.5-0.4-1.1-0.4-1.8c0-0.9,0.2-1.8,0.6-2.5s0.9-1.3,1.5-1.8
		s1.4-0.8,2.2-1.1c0.8-0.2,1.7-0.4,2.7-0.4c1.4,0,2.7,0.2,3.9,0.7c1.2,0.5,2.1,1.1,2.8,1.8l-1.2,1.4c-0.7-0.7-1.5-1.3-2.5-1.6
		c-1-0.4-2-0.5-3.1-0.5c-0.6,0-1.2,0.1-1.8,0.2c-0.6,0.1-1,0.3-1.4,0.6s-0.7,0.7-1,1.1c-0.2,0.4-0.4,1-0.4,1.6
		c0,0.5,0.1,0.9,0.3,1.2c0.2,0.3,0.4,0.6,0.8,0.8s0.9,0.4,1.5,0.6c0.6,0.2,1.3,0.4,2.1,0.6c1.2,0.3,2.2,0.6,3.2,0.9
		c0.9,0.3,1.7,0.6,2.3,1c0.6,0.4,1.1,0.8,1.4,1.4c0.3,0.5,0.5,1.2,0.5,2c0,1.7-0.7,3.1-2,4.1C81.1,73.7,79.3,74.2,77.1,74.2z"/>
	<path class="st0" d="M88.4,42.4v-3.6h2.4v3.6H88.4z M88.4,73.9V46.3h2.4v27.6H88.4z"/>
	<path class="st0" d="M103.6,74.1c-1.3,0-2.5-0.3-3.5-0.8c-1.1-0.5-2-1.2-2.8-2.1s-1.4-1.9-1.8-3s-0.6-2.3-0.6-3.5
		c0-1.3,0.2-2.5,0.6-3.7s1-2.2,1.8-3.1c0.8-0.9,1.7-1.6,2.7-2.1c1.1-0.5,2.2-0.8,3.5-0.8c1.6,0,3,0.4,4.2,1.2s2.2,1.8,3,3v-3.9h2.2
		V74c0,1.3-0.2,2.4-0.7,3.4s-1.1,1.8-2,2.5c-0.8,0.7-1.8,1.2-2.9,1.5s-2.3,0.5-3.5,0.5c-2.1,0-3.9-0.4-5.2-1.1
		c-1.3-0.8-2.4-1.8-3.2-3.1l1.5-1.2c0.7,1.2,1.7,2.1,2.9,2.6c1.2,0.6,2.5,0.8,3.9,0.8c0.9,0,1.8-0.1,2.6-0.4
		c0.8-0.3,1.5-0.6,2.1-1.1s1.1-1.1,1.5-1.9s0.5-1.6,0.5-2.6v-3.7c-0.7,1.2-1.7,2.1-2.9,2.8C106.3,73.8,105,74.1,103.6,74.1z
		 M104.3,72.1c0.7,0,1.4-0.1,2.1-0.4s1.3-0.6,1.9-1.1c0.6-0.4,1-0.9,1.4-1.5c0.4-0.5,0.6-1.1,0.8-1.7v-5.8c-0.3-0.7-0.6-1.3-1.1-1.9
		c-0.5-0.6-1-1.1-1.5-1.5c-0.6-0.4-1.2-0.7-1.8-1c-0.7-0.2-1.3-0.4-2-0.4c-1,0-2,0.2-2.8,0.7c-0.8,0.4-1.5,1-2.1,1.7s-1,1.5-1.3,2.4
		s-0.4,1.8-0.4,2.8s0.2,2,0.5,2.9c0.4,0.9,0.9,1.7,1.5,2.4c0.6,0.7,1.4,1.2,2.2,1.6C102.4,71.9,103.3,72.1,104.3,72.1z"/>
	<path class="st0" d="M134,73.9h-2.4V63.5c0-2.1-0.4-3.7-1.1-4.8c-0.7-1-1.8-1.6-3.2-1.6c-0.7,0-1.4,0.1-2.1,0.4
		c-0.7,0.3-1.3,0.7-1.9,1.1c-0.6,0.5-1.1,1-1.6,1.7c-0.4,0.6-0.8,1.3-1,2.1v11.4h-2.4v-26h2.4v11.7c0.7-1.4,1.8-2.5,3.1-3.3
		c1.3-0.8,2.7-1.2,4.3-1.2c1.1,0,2,0.2,2.7,0.6c0.7,0.4,1.3,0.9,1.8,1.6c0.5,0.7,0.8,1.6,1,2.5c0.2,1,0.3,2.1,0.3,3.3L134,73.9
		L134,73.9z"/>
	<path class="st0" d="M147.9,73c-0.1,0.1-0.4,0.2-0.6,0.3c-0.3,0.1-0.6,0.2-0.9,0.4c-0.4,0.1-0.8,0.2-1.2,0.3
		c-0.5,0.1-0.9,0.1-1.4,0.1s-1-0.1-1.5-0.2s-0.9-0.4-1.3-0.7c-0.4-0.3-0.6-0.7-0.9-1.1c-0.2-0.5-0.3-1-0.3-1.6V57.2h-2.6v-1.9h2.6
		V49h2.4v6.3h4.3v1.9h-4.3v12.7c0,0.7,0.3,1.2,0.7,1.5s0.9,0.5,1.5,0.5c0.7,0,1.3-0.1,1.8-0.3c0.5-0.2,0.9-0.4,1-0.5L147.9,73z"/>
</g>
<g>
	<path class="st0" d="M101.6,44.7h-3.2c-0.6,0-1.1-0.5-1.1-1.1s0.5-1.1,1.1-1.1h3.2c0.6,0,1.1,0.5,1.1,1.1S102.2,44.7,101.6,44.7z"
		/>
	<path class="st0" d="M89.6,33c-0.6,0-1.1-0.5-1.1-1.1v-3.2c0-0.6,0.5-1.1,1.1-1.1s1.1,0.5,1.1,1.1v3.2C90.7,32.4,90.2,33,89.6,33z"
		/>
	<path class="st0" d="M96.8,37.5c-0.3,0-0.6-0.1-0.8-0.3c-0.4-0.4-0.4-1.1,0-1.6l2.3-2.3c0.4-0.4,1.1-0.4,1.6,0
		c0.4,0.4,0.4,1.1,0,1.6l-2.3,2.3C97.3,37.4,97,37.5,96.8,37.5z"/>
	<path class="st0" d="M81.9,37.5c-0.3,0-0.6-0.1-0.8-0.3l-2.3-2.3c-0.4-0.4-0.4-1.1,0-1.6c0.4-0.4,1.1-0.4,1.6,0l2.3,2.3
		c0.4,0.4,0.4,1.1,0,1.6C82.5,37.4,82.2,37.5,81.9,37.5z"/>
	<path class="st0" d="M79.8,44.7h-3.2c-0.6,0-1.1-0.5-1.1-1.1s0.5-1.1,1.1-1.1h3.2c0.6,0,1.1,0.5,1.1,1.1S80.4,44.7,79.8,44.7z"/>
</g>
</svg>
